<svg id="Layer_1" data-name="Layer 1" xmlns="http://www.w3.org/2000/svg" viewBox="0 0 86.07 86.07">
  <defs>
    <style>
      .cls-1 {
        fill: #3d3d3d;
      }
    </style>
  </defs>
  <title>cash-icon-circle</title>
  <path class="cls-1" d="M1037.78,743.51a43,43,0,1,0,43,43A43,43,0,0,0,1037.78,743.51ZM1052,806.74a16.38,16.38,0,0,1-9.59,4.72,0.47,0.47,0,0,0-.36.43l0.07,4.65a0.86,0.86,0,0,1-.86.86h-7.16a0.86,0.86,0,0,1-.86-0.86l0.07-4.72a0.47,0.47,0,0,0-.36-0.43,17,17,0,0,1-9.55-5,13.55,13.55,0,0,1-3.47-9.52v-1.57a0.86,0.86,0,0,1,.86-0.86h7.73a0.85,0.85,0,0,1,.86.86v1.07a5.94,5.94,0,0,0,2.5,4.83,10.84,10.84,0,0,0,6.87,2q3.65,0,5.4-1.61a5.18,5.18,0,0,0,1.75-4,4.15,4.15,0,0,0-1.07-2.9,9.36,9.36,0,0,0-3-2.08q-1.9-.89-6-2.47a54.17,54.17,0,0,1-7.8-3.36,16.14,16.14,0,0,1-5.33-4.69,12,12,0,0,1-2.18-7.34,13,13,0,0,1,3.33-9.12,15.81,15.81,0,0,1,9-4.69,0.47,0.47,0,0,0,.36-0.43l-0.14-5.22a0.85,0.85,0,0,1,.86-0.86h7.16a0.85,0.85,0,0,1,.86.86l-0.07,5.37a0.47,0.47,0,0,0,.36.43,16.63,16.63,0,0,1,9.45,5.19,14.14,14.14,0,0,1,3.51,9.7V777a0.85,0.85,0,0,1-.86.86h-7.8a0.86,0.86,0,0,1-.86-0.86v-0.57a6.62,6.62,0,0,0-2.36-5.12,9.32,9.32,0,0,0-6.44-2.11,7.83,7.83,0,0,0-5,1.43,4.76,4.76,0,0,0-1.79,3.94,4.47,4.47,0,0,0,1,3,9.38,9.38,0,0,0,3.11,2.22q2.08,1,6.44,2.58a74.11,74.11,0,0,1,7.59,3.22,15.11,15.11,0,0,1,5,4.29,11.69,11.69,0,0,1,2.22,7.37A13.22,13.22,0,0,1,1052,806.74Z" transform="translate(-994.75 -743.51)"/>
</svg>
