<svg id="Layer_1" data-name="Layer 1" xmlns="http://www.w3.org/2000/svg" viewBox="0 0 131.88 64.55">
  <defs>
    <style>
      .cls-1, .cls-2 {
        fill: #fff;
      }

      .cls-1 {
        stroke: #fff;
        stroke-miterlimit: 10;
        stroke-width: 3px;
      }
    </style>
  </defs>
  <title>eye-dark</title>
  <path class="cls-1" d="M2565.74,373.71c-33,0-60.58-28.76-61.73-30l-1.69-1.78,1.73-1.75c1.13-1.15,28.1-28,61.7-28s61.3,26.87,62.46,28l1.8,1.77-1.76,1.81C2627,345,2598.72,373.71,2565.74,373.71ZM2509.51,342c6.56,6.23,30,26.61,56.23,26.61s50.2-20.33,57-26.61c-6.75-5.94-30.32-24.8-57-24.8S2516,336.11,2509.51,342Z" transform="translate(-2500.23 -310.65)"/>
  <path class="cls-2" d="M2566.14,371.48a28.56,28.56,0,1,1,28.56-28.56A28.59,28.59,0,0,1,2566.14,371.48Zm0-52a23.48,23.48,0,1,0,23.48,23.48A23.51,23.51,0,0,0,2566.14,319.45Z" transform="translate(-2500.23 -310.65)"/>
  <path class="cls-2" d="M2566.11,314.35a28.58,28.58,0,1,0,28.58,28.58A28.58,28.58,0,0,0,2566.11,314.35Zm0,38.14a9.56,9.56,0,0,1-9.56-9.56,9.68,9.68,0,0,1,.05-1,5.73,5.73,0,1,0,7.74-8.4A9.56,9.56,0,1,1,2566.11,352.49Z" transform="translate(-2500.23 -310.65)"/>
</svg>
