<svg id="Layer_1" data-name="Layer 1" xmlns="http://www.w3.org/2000/svg" viewBox="0 0 130.48 63.55">
  <defs>
    <style>
      .cls-1 {
        fill: #3d3d3d;
        stroke: #3d3d3d;
        stroke-miterlimit: 10;
        stroke-width: 2px;
      }
    </style>
  </defs>
  <title>eye</title>
  <g>
    <path class="cls-1" d="M1319.64,373.71c-33,0-60.58-28.76-61.73-30l-1.69-1.78,1.73-1.75c1.13-1.15,28.1-28,61.7-28s61.3,26.87,62.46,28l1.8,1.77-1.76,1.81C1381,345,1352.62,373.71,1319.64,373.71ZM1263.41,342c6.56,6.23,30,26.61,56.23,26.61s50.2-20.33,57-26.61c-6.75-5.94-30.32-24.8-57-24.8S1269.95,336.11,1263.41,342Z" transform="translate(-1254.83 -311.15)"/>
    <path class="cls-1" d="M1320,371.48a28.56,28.56,0,1,1,28.56-28.56A28.59,28.59,0,0,1,1320,371.48Zm0-52a23.48,23.48,0,1,0,23.48,23.48A23.51,23.51,0,0,0,1320,319.45Z" transform="translate(-1254.83 -311.15)"/>
    <path class="cls-1" d="M1320,328.65a14.33,14.33,0,0,0-2.64.25,8.56,8.56,0,1,1-11.56,12.55,14.45,14.45,0,0,0-.08,1.47A14.28,14.28,0,1,0,1320,328.65Z" transform="translate(-1254.83 -311.15)"/>
  </g>
</svg>
