<svg id="Layer_1" data-name="Layer 1" xmlns="http://www.w3.org/2000/svg" viewBox="0 0 86.07 86.07">
  <defs>
    <style>
      .cls-1 {
        fill: #3d3d3d;
      }
    </style>
  </defs>
  <title>timer-icon-circle</title>
  <path class="cls-1" d="M911.24,743.51a43,43,0,1,0,43,43A43,43,0,0,0,911.24,743.51Zm0,38.47a4.38,4.38,0,1,1-4.38,4.38s0-.05,0-0.08l-0.08.08-7.33-11.78,11.78,7.35-0.07.07h0.07Zm0,31.84a27.46,27.46,0,0,1-19.42-46.88l3.61,3.61a22.36,22.36,0,1,0,18.36-6.4v6.28h-5.1V758.89h2.55A27.46,27.46,0,0,1,911.24,813.82Z" transform="translate(-868.2 -743.51)"/>
</svg>
